<?xml version="1.0" encoding="utf-8"?>
<!-- Generator: Adobe Illustrator 28.1.0, SVG Export Plug-In . SVG Version: 6.00 Build 0)  -->
<svg version="1.1" id="Layer_1" xmlns="http://www.w3.org/2000/svg" xmlns:xlink="http://www.w3.org/1999/xlink" x="0px" y="0px"
	 viewBox="0 0 651.97 595.28" style="enable-background:new 0 0 651.97 595.28;" xml:space="preserve">
<style type="text/css">
	.st0{fill:#FFFFFF;}
</style>
<path class="st0" d="M348.53,93.28c0.3,0.01,53.17-0.44,84.06,5.51c22.64,3.27,35.18,15.59,40.8,35.06
	c10.85,33.99,20.92,88.84,25.32,147.35c0.12,1.66,0.29,3.92,0.4,5.57h81.15c-0.63-78.63-8.7-152.75-19.83-199.51
	c-5.8-27.85-22.05-46.43-53.39-53.39C473.32,25.44,428,19.49,378.03,16.45c-0.23-0.01-15.71-0.78-15.95-0.8L348.53,93.28z"/>
<path class="st0" d="M98.11,316.79L98.11,316.79c-0.15-1.85-0.3-3.71-0.44-5.57c-4.4-58.51-2.78-114.15,2.87-149.38
	c2.64-20.09,13.19-34.14,35.09-40.76c35.61-11.79,88.86-20.76,147.42-25.15c12.19-0.92,24.21-1.63,35.62-2.08l13.84-79.23
	c-11.16-0.28-22.64-0.48-34.4-0.48c-82.41,0-157.84,6.96-208.91,19.73C57.87,40.83,41.62,59.4,35.82,87.26
	C24.22,136,16.09,213.77,16.09,296.17c0,11.71,0.48,34.78,0.48,34.78c-0.01-0.2,0,0,0,0L98.11,316.79z"/>
<path class="st0" d="M269.34,498.69c-40.97,1.2-78.31-0.44-105.68-5.14c-22.64-3.27-35.18-15.59-40.8-35.06
	c-10.14-32.55-17.27-71.52-21.67-112.55L17.96,360.6c2.33,51.8,10.06,111.73,17.86,144.48c5.8,27.85,22.05,46.43,53.39,53.39
	c44.92,11.23,109.34,17.97,180.12,19.43V498.69z"/>
<g>
	<path class="st0" d="M329.9,578.23l0.08-108.59l-31.8-0.02L298.1,578.2L329.9,578.23z M357.49,494.64l-0.04,46.45
		c-0.02,26.36,13.78,39.56,38.26,39.57c8.79,0.01,16.11-1.04,19.67-2.08l0.02-24.27c-2.3,0.62-6.49,1.25-11.3,1.24
		c-10.25-0.01-14.85-5.03-14.84-16.54l0.03-44.36l27.62,0.02l0.02-24.69l-27.62-0.02l0.03-32.85l-31.81,5.62l-0.02,27.2l-15.9-0.01
		l-0.02,24.69L357.49,494.64z M464.64,581.05c12.76,0.01,21.97-5.22,28.47-14l0.41,11.3l29.71,0.02l0.05-63.81
		c0.02-30.96-17.33-47.51-48.3-47.53c-15.9-0.01-29.08,2.48-41.85,7.29l-0.02,25.53c12.56-4.81,25.11-7.73,36.83-7.72
		c14.64,0.01,22.8,6.71,22.79,18.43c-2.51-0.21-6.69-0.42-10.67-0.43c-33.48-0.03-54.62,13.77-54.64,37.41
		C427.41,568.05,441.84,581.03,464.64,581.05z M484.98,529.8c2.51,0,6.49,0.22,7.95,0.43l-0.01,8.58
		c-0.01,11.51-7.76,19.45-18.85,19.44c-9.83-0.01-15.9-4.4-15.89-13.19C458.19,535.02,467.82,529.79,484.98,529.8z M575.53,581.14
		c13.18,0.01,22.18-4.8,29.3-14.41l0.41,11.71l30.55,0.02l0.08-108.59l-31.8-0.02l-0.05,64.02c-0.01,13.18-6.5,21.54-17.17,21.54
		c-10.46-0.01-16.11-7.13-16.1-20.31l0.05-65.28l-31.8-0.02l-0.05,70.51C538.94,565.21,553.15,581.12,575.53,581.14z M615.59,455.21
		l0.02-27.62l-52.94,9.38l-0.01,18.2L615.59,455.21z"/>
	<g>
		<g>
			<path class="st0" d="M314.13,458.37c11.09,0.01,18.84-7.52,18.85-18.19c0.01-10.88-7.73-18.21-18.82-18.22
				c-11.09-0.01-18.83,7.52-18.84,18.19C295.3,451.03,303.04,458.36,314.13,458.37z"/>
		</g>
	</g>
</g>
<g>
	<path class="st0" d="M300.08,339.51c-7.4-0.01-12.45,2.67-16.45,8.03l-0.23-6.52L266.25,341l-0.05,60.46l17.85,0.01l0.03-35.65
		c0.01-7.34,3.65-12,9.64-11.99c5.87,0,9.04,3.97,9.04,11.31l-0.03,36.35l17.85,0.01l0.03-39.26
		C320.62,348.38,312.64,339.52,300.08,339.51z"/>
	<path class="st0" d="M220.4,403.14c7.4,0.01,12.45-2.67,16.45-8.02l0.23,6.52l17.15,0.01l0.05-60.46l-17.85-0.01l-0.03,35.65
		c-0.01,7.34-3.65,12-9.64,11.99c-5.87,0-9.04-3.97-9.04-11.31l0.03-36.35l-17.85-0.01l-0.03,39.26
		C199.86,394.27,207.84,403.13,220.4,403.14z"/>
	<path class="st0" d="M160.34,401.63h-17.88v-78.22h50.36v15.06h-32.48v18.08h26.64v15.06h-26.64V401.63z"/>
	<path class="st0" d="M355.67,403.14c-4.99,0-9.37-1.27-13.14-3.82c-3.78-2.55-6.7-6.18-8.76-10.89c-2.07-4.71-3.1-10.31-3.1-16.8
		c0-6.56,1.05-12.23,3.16-16.98c2.1-4.75,5.06-8.44,8.88-11.07c3.82-2.63,8.22-3.94,13.2-3.94c6.54,0,11.76,2.28,15.66,6.84V318.2
		h17.76v83.43h-16.22l-0.25-7.3c-1.71,2.78-4.07,4.94-7.07,6.49C362.77,402.37,359.4,403.14,355.67,403.14z M360.34,388.89
		c3.66,0,6.52-1.52,8.59-4.58c2.06-3.05,3.1-7.32,3.1-12.8c0-5.56-1.03-9.89-3.1-12.98c-2.06-3.09-4.93-4.64-8.59-4.64
		c-3.66,0-6.53,1.53-8.59,4.58c-2.06,3.05-3.1,7.32-3.1,12.8c0,5.56,1.03,9.89,3.1,12.98C353.81,387.34,356.68,388.89,360.34,388.89
		z"/>
	<path class="st0" d="M490.65,403.14c-6.31,0-11.76-1.27-16.36-3.82c-4.6-2.55-8.16-6.2-10.69-10.95c-2.53-4.75-3.8-10.37-3.8-16.86
		c0-6.33,1.32-11.9,3.97-16.69c2.65-4.79,6.33-8.52,11.04-11.18c4.71-2.67,10.18-4,16.42-4c2.8,0,5.53,0.35,8.18,1.04
		c2.65,0.7,4.75,1.58,6.31,2.67v14.25c-3.35-2.47-7.44-3.71-12.27-3.71c-4.91,0-8.74,1.53-11.51,4.58
		c-2.77,3.05-4.15,7.32-4.15,12.8c0,5.41,1.42,9.7,4.26,12.86c2.84,3.17,6.68,4.75,11.51,4.75c5.22,0,9.5-1.31,12.85-3.94v14.14
		c-1.71,1.24-3.97,2.22-6.78,2.96C496.84,402.77,493.84,403.14,490.65,403.14z M483.17,400.47h9.82l-2.22,7.65
		c3.66,0.31,6.58,1.51,8.76,3.59c2.18,2.09,3.27,4.64,3.27,7.65c0,4.09-1.58,7.28-4.73,9.56c-3.15,2.28-7.61,3.42-13.38,3.42
		c-2.34,0-4.87-0.35-7.59-1.04v-8.81c1.09,0.31,2.18,0.52,3.27,0.64c1.09,0.12,2.02,0.18,2.8,0.18c4.52,0,6.78-1.43,6.78-4.29
		c0-2.63-2.38-3.94-7.13-3.94h-3.62L483.17,400.47z"/>
	<path class="st0" d="M551.52,333.84c-2.41,0-4.54-0.52-6.37-1.56c-1.83-1.04-3.49-2.09-4.97-3.13c-1.48-1.04-2.84-1.56-4.09-1.56
		c-2.18,0-3.27,1.7-3.27,5.1v0.93h-10.87v-0.93c0-5.41,1.09-9.52,3.27-12.34c2.18-2.82,5.34-4.23,9.46-4.23
		c2.41,0,4.56,0.52,6.43,1.56c1.87,1.04,3.52,2.09,4.97,3.13c1.44,1.04,2.78,1.56,4.03,1.56c2.18,0,3.27-1.7,3.27-5.1v-0.93h10.87
		v0.93c0,5.41-1.09,9.52-3.27,12.34C558.8,332.44,555.65,333.84,551.52,333.84z"/>
	<path class="st0" d="M605.97,403.14c-6,0-11.22-1.29-15.66-3.88c-4.44-2.59-7.89-6.26-10.34-11.01
		c-2.45-4.75-3.68-10.33-3.68-16.74c0-6.41,1.23-12.01,3.68-16.8c2.45-4.79,5.92-8.5,10.4-11.12c4.48-2.63,9.68-3.94,15.6-3.94
		c6,0,11.22,1.29,15.66,3.88c4.44,2.59,7.89,6.26,10.34,11.01c2.45,4.75,3.68,10.33,3.68,16.74c0,6.41-1.23,12.01-3.68,16.8
		c-2.45,4.79-5.9,8.5-10.34,11.12C617.18,401.82,611.96,403.14,605.97,403.14z M605.97,388.89c3.66,0,6.52-1.52,8.59-4.58
		c2.06-3.05,3.1-7.32,3.1-12.8c0-5.56-1.03-9.89-3.1-12.98c-2.06-3.09-4.93-4.64-8.59-4.64c-3.66,0-6.53,1.53-8.59,4.58
		c-2.06,3.05-3.1,7.32-3.1,12.8c0,5.56,1.03,9.89,3.1,12.98C599.44,387.34,602.3,388.89,605.97,388.89z"/>
	<path class="st0" d="M540.29,339.64c-8.93-0.01-16.33,1.38-23.5,4.06l-0.01,14.22c7.05-2.68,14.1-4.3,20.68-4.3
		c8.22,0.01,12.8,3.74,12.8,10.27c-1.41-0.12-3.76-0.24-5.99-0.24c-18.8-0.01-30.67,7.67-30.68,20.83
		c-0.01,11.42,8.09,18.65,20.9,18.66c7.17,0.01,12.34-2.9,15.99-7.79l0.23,6.29l16.68,0.01l0.03-35.54
		C567.42,348.86,557.68,339.65,540.29,339.64z M550.36,379.61c-0.01,6.41-4.36,10.83-10.58,10.83c-5.52,0-8.93-2.45-8.92-7.35
		c0-5.59,5.41-8.5,15.05-8.5c1.41,0,3.64,0.12,4.47,0.24L550.36,379.61z"/>
	<path class="st0" d="M423.8,339.64c-8.93-0.01-16.33,1.38-23.5,4.06l-0.01,14.22c7.05-2.68,14.1-4.3,20.68-4.3
		c8.22,0.01,12.8,3.74,12.8,10.27c-1.41-0.12-3.76-0.24-5.99-0.24c-18.8-0.01-30.67,7.67-30.68,20.83
		c-0.01,11.42,8.09,18.65,20.9,18.66c7.17,0.01,12.34-2.9,15.99-7.79l0.23,6.29l16.68,0.01l0.03-35.54
		C450.93,348.86,441.19,339.65,423.8,339.64z M433.87,379.61c-0.01,6.41-4.36,10.83-10.58,10.83c-5.52,0-8.93-2.45-8.92-7.35
		c0-5.59,5.41-8.5,15.05-8.5c1.41,0,3.64,0.12,4.47,0.24L433.87,379.61z"/>
</g>
</svg>
